<?xml version="1.0" encoding="UTF-8" standalone="no"?>
<!-- Created with Inkscape (http://www.inkscape.org/) -->

<svg
   xmlns:dc="http://purl.org/dc/elements/1.1/"
   xmlns:cc="http://creativecommons.org/ns#"
   xmlns:rdf="http://www.w3.org/1999/02/22-rdf-syntax-ns#"
   xmlns:svg="http://www.w3.org/2000/svg"
   xmlns="http://www.w3.org/2000/svg"
   version="1.1"
   width="300"
   height="68.678673"
   id="svg2"
   xml:space="preserve"><metadata
     id="metadata8"><rdf:RDF><cc:Work
         rdf:about=""><dc:format>image/svg+xml</dc:format><dc:type
           rdf:resource="http://purl.org/dc/dcmitype/StillImage" /><dc:title></dc:title></cc:Work></rdf:RDF></metadata><defs
     id="defs6"><clipPath
       id="clipPath24"><path
         d="m 0,0 425.197,0 0,425.197 L 0,425.197 0,0 z"
         id="path26" /></clipPath><clipPath
       id="clipPath48"><path
         d="m 0,0 425.197,0 0,425.197 L 0,425.197 0,0 z"
         id="path50" /></clipPath><clipPath
       id="clipPath76"><path
         d="m 0,0 425.197,0 0,425.197 L 0,425.197 0,0 z"
         id="path78" /></clipPath><clipPath
       id="clipPath186"><path
         d="m 0,0 425.197,0 0,425.197 L 0,425.197 0,0 z"
         id="path188" /></clipPath><clipPath
       id="clipPath232"><path
         d="m 0,0 425.197,0 0,425.197 L 0,425.197 0,0 z"
         id="path234" /></clipPath><clipPath
       id="clipPath246"><path
         d="m 32.346,288.833 90.817,0 0,20.791 -90.817,0 0,-20.791 z"
         id="path248" /></clipPath><clipPath
       id="clipPath360"><path
         d="m 0,0 425.197,0 0,425.197 L 0,425.197 0,0 z"
         id="path362" /></clipPath><clipPath
       id="clipPath384"><path
         d="m 32.346,215.132 90.817,0 0,20.791 -90.817,0 0,-20.791 z"
         id="path386" /></clipPath><clipPath
       id="clipPath498"><path
         d="m 0,0 425.197,0 0,425.197 L 0,425.197 0,0 z"
         id="path500" /></clipPath><clipPath
       id="clipPath524"><path
         d="m 32.346,141.658 90.27,0 0,20.564 -90.27,0 0,-20.564 z"
         id="path526" /></clipPath><clipPath
       id="clipPath638"><path
         d="m 0,0 425.197,0 0,425.197 L 0,425.197 0,0 z"
         id="path640" /></clipPath></defs><g
     transform="matrix(1.25,0,0,-1.25,52.806869,316.24896)"
     id="g10"><g
       transform="matrix(2.642683,0,0,2.642683,-127.726,-370.47053)"
       id="g380"><g
         clip-path="url(#clipPath384)"
         id="g382"><g
           transform="translate(44.015106,224.41319)"
           id="g388"><path
             d="m 0,0 c -0.352,-0.264 -2.182,-1.672 -5.139,-1.672 -3.749,0 -6.53,2.693 -6.53,6.547 0,3.432 2.288,6.635 6.688,6.635 2.253,0 3.731,-0.721 4.647,-1.619 l -1.25,-1.637 c -0.581,0.475 -1.76,1.215 -3.432,1.215 -2.64,0 -4.329,-2.035 -4.329,-4.559 0,-3.107 2.094,-4.611 4.276,-4.611 1.743,0 2.799,0.704 2.975,0.827 l 0,2.376 -3.151,0 0,1.883 L 0,5.385 0,0 z"
             id="path390"
             style="fill:#ffffff;fill-opacity:1;fill-rule:nonzero;stroke:none" /></g><g
           transform="translate(53.131805,227.5636)"
           id="g392"><path
             d="m 0,0 0,0.035 c 0,1.637 -1.179,2.957 -2.851,2.957 -1.707,0 -2.798,-1.303 -2.798,-2.922 l 0,-0.035 c 0,-1.619 1.179,-2.939 2.833,-2.939 C -1.091,-2.904 0,-1.602 0,0 m 2.13,0.035 c 0,-2.64 -2.112,-4.787 -4.981,-4.787 -2.834,0 -4.928,2.112 -4.928,4.752 l 0,0.035 c 0,2.658 2.112,4.822 4.963,4.822 2.851,0 4.946,-2.129 4.946,-4.787 l 0,-0.035 z"
             id="path394"
             style="fill:#ffffff;fill-opacity:1;fill-rule:nonzero;stroke:none" /></g><path
           d="m 58.729,222.952 -2.13,0 0,12.848 2.13,0 0,-12.848 z"
           id="path396"
           style="fill:#ffffff;fill-opacity:1;fill-rule:nonzero;stroke:none" /><g
           transform="translate(67.686905,227.59869)"
           id="g398"><path
             d="m 0,0 c 0,2.024 -1.443,2.957 -2.746,2.957 -1.267,0 -2.727,-0.88 -2.727,-2.939 0,-1.592 1.02,-2.975 2.763,-2.975 C -1.03,-2.957 0,-1.743 0,0 m 2.094,-4.646 -2.024,0 0,1.232 c -0.545,-0.845 -1.795,-1.426 -3.097,-1.426 -2.446,0 -4.594,1.742 -4.594,4.822 l 0,0.053 c 0,2.253 1.338,4.805 4.682,4.805 1.302,0 2.446,-0.546 2.904,-1.25 l 0,4.612 2.129,0 0,-12.848 z"
             id="path400"
             style="fill:#ffffff;fill-opacity:1;fill-rule:nonzero;stroke:none" /></g><g
           transform="translate(78.334793,225.6452)"
           id="g402"><path
             d="m 0,0 c 0,-1.866 -1.513,-2.869 -3.449,-2.869 -2.253,0 -3.767,1.039 -3.908,1.197 l 0.916,1.514 c 0.968,-0.669 2.041,-0.986 2.992,-0.986 0.88,0 1.284,0.387 1.284,1.021 0,0.686 -0.808,0.9 -1.9,1.302 -1.443,0.531 -2.869,1.003 -2.869,2.728 l 0,0.035 c 0,1.76 1.496,2.852 3.344,2.852 1.161,0 2.446,-0.317 3.432,-0.969 l -0.81,-1.566 c -0.897,0.546 -1.865,0.81 -2.534,0.81 -0.81,0 -1.303,-0.335 -1.303,-0.933 0,-0.775 1.268,-1.072 1.954,-1.32 C -1.495,2.325 0,1.742 0,0"
             id="path404"
             style="fill:#ffffff;fill-opacity:1;fill-rule:nonzero;stroke:none" /></g><path
           d="m 97.749,233.209 -2.13,0 0,2.059 2.13,0 0,-2.059 z"
           id="path406"
           style="fill:#ffffff;fill-opacity:1;fill-rule:nonzero;stroke:none" /><path
           d="m 97.749,222.948 -2.13,0 0,9.293 2.13,0 0,-9.293 z"
           id="path408"
           style="fill:#ffffff;fill-opacity:1;fill-rule:nonzero;stroke:none" /><g
           transform="translate(105.5807,223.4231)"
           id="g410"><path
             d="m 0,0 c -0.088,-0.059 -0.915,-0.634 -2.358,-0.634 -1.848,0 -2.887,0.898 -2.887,2.904 l 0,4.858 -1.355,0 0,1.69 1.373,0 0,3.027 2.112,0 0,-3.027 2.675,0 0,-1.69 -2.675,0 0,-4.506 c 0,-0.51 0.052,-0.844 0.317,-1.108 0.211,-0.212 0.51,-0.317 0.88,-0.317 0.545,0 1.038,0.176 1.284,0.299 L 0,0 z"
             id="path412"
             style="fill:#ffffff;fill-opacity:1;fill-rule:nonzero;stroke:none" /></g><g
           transform="translate(114.76781,222.94791)"
           id="g414"><path
             d="m 0,0 -2.13,0 0,4.946 c 0,1.531 -0.263,2.64 -1.812,2.64 -1.849,0 -1.989,-1.716 -1.989,-2.904 l 0,-4.682 -2.13,0 0,12.848 2.13,0 0,-4.506 c 0.412,0.54 1.232,1.144 2.464,1.144 1.267,0 2.037,-0.383 2.569,-0.915 C 0.014,7.66 0,6.178 0,5.632 L 0,0 z"
             id="path416"
             style="fill:#ffffff;fill-opacity:1;fill-rule:nonzero;stroke:none" /></g><g
           transform="translate(123.1629,225.64079)"
           id="g418"><path
             d="m 0,0 c 0,-1.866 -1.514,-2.869 -3.45,-2.869 -2.252,0 -3.766,1.039 -3.907,1.197 l 0.915,1.514 c 0.968,-0.669 2.042,-0.986 2.992,-0.986 0.88,0 1.285,0.387 1.285,1.021 0,0.686 -0.808,0.9 -1.901,1.302 -1.442,0.531 -2.868,1.003 -2.868,2.728 l 0,0.035 c 0,1.76 1.496,2.852 3.344,2.852 1.161,0 2.446,-0.317 3.432,-0.969 l -0.81,-1.566 c -0.898,0.546 -1.866,0.81 -2.534,0.81 -0.81,0 -1.303,-0.335 -1.303,-0.933 0,-0.774 1.268,-1.072 1.954,-1.32 C -1.495,2.325 0,1.742 0,0"
             id="path420"
             style="fill:#ffffff;fill-opacity:1;fill-rule:nonzero;stroke:none" /></g><g
           transform="translate(93.768997,222.9491)"
           id="g422"><path
             d="m 0,0 -2.13,0 0,4.945 c 0,1.532 -0.264,2.64 -1.812,2.64 -1.849,0 -1.989,-1.716 -1.989,-2.904 l 0,-4.681 -2.13,0 0,4.945 c 0,1.532 -0.317,2.64 -1.865,2.64 -1.672,0 -1.936,-1.494 -1.936,-2.64 l 0,-4.945 -2.13,0 0,9.293 2.024,0 0,-1.127 c 0.5,0.698 1.327,1.338 2.64,1.338 1.417,0 2.267,-0.565 2.781,-1.549 0.47,0.637 1.425,1.531 3.08,1.531 1.267,0 2.038,-0.383 2.569,-0.915 C 0.014,7.659 0,6.177 0,5.632 L 0,0 z"
             id="path424"
             style="fill:#ffffff;fill-opacity:1;fill-rule:nonzero;stroke:none" /></g><g
           transform="translate(59.422699,216.6644)"
           id="g426"><path
             d="m 0,0 c 0,-0.467 -0.039,-1.523 -1.421,-1.523 -1.367,0 -1.403,1.146 -1.403,1.436 l 0,1.835 0.763,0 0,-1.854 c 0,-0.507 0.23,-0.754 0.649,-0.754 0.653,0 0.648,0.553 0.648,0.731 l 0,1.877 L 0,1.748 0,0 z"
             id="path428"
             style="fill:#ffffff;fill-opacity:1;fill-rule:nonzero;stroke:none" /></g><g
           transform="translate(63.300507,215.1924)"
           id="g430"><path
             d="m 0,0 -0.598,0 -1.504,1.983 0,-1.983 -0.718,0 0,3.22 0.653,0 1.468,-1.937 0,1.937 L 0,3.22 0,0 z"
             id="path432"
             style="fill:#ffffff;fill-opacity:1;fill-rule:nonzero;stroke:none" /></g><path
           d="m 65.168,215.192 -0.764,0 0,3.22 0.764,0 0,-3.22 z"
           id="path434"
           style="fill:#ffffff;fill-opacity:1;fill-rule:nonzero;stroke:none" /><g
           transform="translate(69.170105,218.4124)"
           id="g436"><path
             d="m 0,0 -1.27,-3.22 -0.685,0 L -3.229,0 -2.401,0 -1.596,-2.203 -0.782,0 0,0 z"
             id="path438"
             style="fill:#ffffff;fill-opacity:1;fill-rule:nonzero;stroke:none" /></g><g
           transform="translate(72.302597,215.1924)"
           id="g440"><path
             d="m 0,0 -2.36,0 0,3.22 2.323,0 0,-0.612 -1.564,0 0,-0.68 1.371,0 0,-0.608 -1.371,0 0,-0.699 L 0,0.621 0,0 z"
             id="path442"
             style="fill:#ffffff;fill-opacity:1;fill-rule:nonzero;stroke:none" /></g><g
           transform="translate(75.182205,217.3544)"
           id="g444"><path
             d="m 0,0 c 0,0.427 -0.396,0.46 -0.685,0.46 l -0.401,0 0,-0.92 0.368,0 C -0.425,-0.46 0,-0.453 0,0 m 0.957,-2.162 -0.861,0 -0.745,1.136 -0.437,0 0,-1.136 -0.759,0 0,3.22 1.242,0 c 0.251,0 0.737,-0.005 1.026,-0.294 0.148,-0.148 0.294,-0.369 0.294,-0.755 0,-0.674 -0.506,-0.86 -0.63,-0.901 l 0.87,-1.27 z"
             id="path446"
             style="fill:#ffffff;fill-opacity:1;fill-rule:nonzero;stroke:none" /></g><g
           transform="translate(79.211807,216.13541)"
           id="g448"><path
             d="m 0,0 c 0,-0.658 -0.504,-1.003 -1.196,-1.003 -0.667,0 -1.142,0.252 -1.279,0.364 l 0.295,0.538 c 0.117,-0.058 0.51,-0.285 0.984,-0.285 0.347,0 0.474,0.136 0.474,0.34 0,0.283 -0.352,0.328 -0.612,0.409 -0.425,0.134 -1.058,0.327 -1.058,1.017 0,0.584 0.467,0.952 1.182,0.952 0.545,0 1.019,-0.223 1.118,-0.308 L -0.345,1.481 c -0.048,0.023 -0.455,0.235 -0.874,0.235 -0.313,0 -0.455,-0.104 -0.455,-0.313 0,-0.228 0.307,-0.312 0.671,-0.419 C -0.518,0.842 0,0.644 0,0"
             id="path450"
             style="fill:#ffffff;fill-opacity:1;fill-rule:nonzero;stroke:none" /></g><path
           d="m 80.941,215.192 -0.764,0 0,3.22 0.764,0 0,-3.22 z"
           id="path452"
           style="fill:#ffffff;fill-opacity:1;fill-rule:nonzero;stroke:none" /><g
           transform="translate(84.501602,217.8006)"
           id="g454"><path
             d="m 0,0 -0.998,0 0,-2.608 -0.764,0 0,2.608 -0.998,0 0,0.612 2.76,0 L 0,0 z"
             id="path456"
             style="fill:#ffffff;fill-opacity:1;fill-rule:nonzero;stroke:none" /></g><g
           transform="translate(88.223099,218.4124)"
           id="g458"><path
             d="m 0,0 -1.196,-1.941 0,-1.279 -0.764,0 0,1.279 L -3.169,0 -2.277,0 -1.555,-1.224 -0.796,0 0,0 z"
             id="path460"
             style="fill:#ffffff;fill-opacity:1;fill-rule:nonzero;stroke:none" /></g><g
           transform="translate(93.511902,216.7932)"
           id="g462"><path
             d="m 0,0 0,0.009 c 0,0.576 -0.389,0.994 -0.934,0.994 -0.559,0 -0.924,-0.416 -0.924,-0.984 l 0,-0.01 c 0,-0.556 0.374,-0.993 0.933,-0.993 C -0.366,-0.984 0,-0.565 0,0 m 0.782,0.009 c 0,-0.915 -0.722,-1.665 -1.716,-1.665 -0.993,0 -1.706,0.741 -1.706,1.656 l 0,0.009 c 0,0.916 0.722,1.665 1.715,1.665 0.994,0 1.707,-0.74 1.707,-1.655 l 0,-0.01 z"
             id="path464"
             style="fill:#ffffff;fill-opacity:1;fill-rule:nonzero;stroke:none" /></g><g
           transform="translate(97.445007,217.8006)"
           id="g466"><path
             d="m 0,0 -1.504,0 0,-0.736 1.297,0 0,-0.607 -1.297,0 0,-1.265 -0.764,0 0,3.22 L 0,0.612 0,0 z"
             id="path468"
             style="fill:#ffffff;fill-opacity:1;fill-rule:nonzero;stroke:none" /></g><g
           transform="translate(102.6004,215.1924)"
           id="g470"><path
             d="m 0,0 -2.314,0 0,3.22 0.764,0 0,-2.599 1.55,0 L 0,0 z"
             id="path472"
             style="fill:#ffffff;fill-opacity:1;fill-rule:nonzero;stroke:none" /></g><g
           transform="translate(105.7928,216.7932)"
           id="g474"><path
             d="m 0,0 0,0.009 c 0,0.576 -0.389,0.994 -0.934,0.994 -0.559,0 -0.924,-0.416 -0.924,-0.984 l 0,-0.01 c 0,-0.556 0.374,-0.993 0.933,-0.993 C -0.365,-0.984 0,-0.565 0,0 m 0.782,0.009 c 0,-0.915 -0.722,-1.665 -1.716,-1.665 -0.993,0 -1.706,0.741 -1.706,1.656 l 0,0.009 c 0,0.916 0.722,1.665 1.715,1.665 0.994,0 1.707,-0.74 1.707,-1.655 l 0,-0.01 z"
             id="path476"
             style="fill:#ffffff;fill-opacity:1;fill-rule:nonzero;stroke:none" /></g><g
           transform="translate(110.27789,215.1924)"
           id="g478"><path
             d="m 0,0 -0.598,0 -1.504,1.983 0,-1.983 -0.718,0 0,3.22 0.653,0 1.468,-1.937 0,1.937 L 0,3.22 0,0 z"
             id="path480"
             style="fill:#ffffff;fill-opacity:1;fill-rule:nonzero;stroke:none" /></g><g
           transform="translate(113.6163,216.7886)"
           id="g482"><path
             d="M 0,0 C 0,0.294 -0.087,0.57 -0.267,0.75 -0.524,1.007 -0.833,1.017 -1.03,1.017 l -0.447,0 0,-2.001 0.414,0 c 0.251,0 0.555,0.016 0.801,0.262 C -0.094,-0.554 0,-0.308 0,0 m 0.8,0.014 c 0,-0.439 -0.151,-0.846 -0.437,-1.132 -0.4,-0.4 -0.894,-0.478 -1.467,-0.478 l -1.132,0 0,3.22 1.325,0 c 0.498,0 0.934,-0.138 1.256,-0.46 C 0.625,0.884 0.8,0.479 0.8,0.014"
             id="path484"
             style="fill:#ffffff;fill-opacity:1;fill-rule:nonzero;stroke:none" /></g><g
           transform="translate(117.7746,216.7932)"
           id="g486"><path
             d="m 0,0 0,0.009 c 0,0.576 -0.389,0.994 -0.934,0.994 -0.559,0 -0.924,-0.416 -0.924,-0.984 l 0,-0.01 c 0,-0.556 0.374,-0.993 0.933,-0.993 C -0.366,-0.984 0,-0.565 0,0 m 0.782,0.009 c 0,-0.915 -0.722,-1.665 -1.716,-1.665 -0.993,0 -1.706,0.741 -1.706,1.656 l 0,0.009 c 0,0.916 0.722,1.665 1.715,1.665 0.994,0 1.707,-0.74 1.707,-1.655 l 0,-0.01 z"
             id="path488"
             style="fill:#ffffff;fill-opacity:1;fill-rule:nonzero;stroke:none" /></g><g
           transform="translate(122.2596,215.1924)"
           id="g490"><path
             d="m 0,0 -0.598,0 -1.504,1.983 0,-1.983 -0.718,0 0,3.22 0.653,0 1.468,-1.937 0,1.937 L 0,3.22 0,0 z"
             id="path492"
             style="fill:#ffffff;fill-opacity:1;fill-rule:nonzero;stroke:none" /></g></g></g></g></svg>